<svg xmlns="http://www.w3.org/2000/svg" width="1253" height="260" viewBox="0 0 1253 260">
  <g id="Logo" transform="translate(7 7)">
    <line id="Line_1" data-name="Line 1" y1="61" x2="288" transform="translate(457.5 131.5)" fill="none" stroke="#725424" stroke-width="5"/>
    <line id="Line_2" data-name="Line 2" x1="9" y2="16" transform="translate(736.5 131.5)" fill="none" stroke="#775725" stroke-width="5"/>
    <line id="Line_3" data-name="Line 3" x2="31" transform="translate(736.5 147.5)" fill="none" stroke="#775725" stroke-width="5"/>
    <line id="Line_4" data-name="Line 4" x1="11" y1="14" transform="translate(756.5 131.5)" fill="none" stroke="#766853" stroke-width="5"/>
    <line id="Line_5" data-name="Line 5" x2="256" y2="61" transform="translate(767.5 131.5)" fill="none" stroke="#775725" stroke-width="5"/>
    <path id="Path_2" data-name="Path 2" d="M990.5,650.324s2.62-98.759-128-25.426-157.935,57.226-157.935,57.226" transform="translate(-234 -499.691)" fill="none" stroke="#f8f0aa" stroke-width="3"/>
    <path id="Path_3" data-name="Path 3" d="M1001.5,672.621s2.721-140.685-132.929-36.22-164.013,81.52-164.013,81.52" transform="translate(-245.004 -536.125)" fill="none" stroke="#f8f0aa" stroke-width="3"/>
    <path id="Path_5" data-name="Path 5" d="M704.565,664.74s-2.419-125.867,118.175-32.4,145.809,72.934,145.809,72.934" transform="translate(50.606 -536.125)" fill="none" stroke="#f8f0aa" stroke-width="3"/>
    <path id="Path_8" data-name="Path 8" d="M990.5,650.324s2.62-98.759-128-25.426-157.935,57.226-157.935,57.226" transform="translate(-234 -512.568)" fill="none" stroke="#f8f0aa" stroke-width="3"/>
    <path id="Path_9" data-name="Path 9" d="M704.565,638.544s-2.459-76.607,120.12-19.723,148.209,44.39,148.209,44.39" transform="translate(50.606 -485.964)" fill="none" stroke="#f8f0aa" stroke-width="3"/>
    <path id="Path_10" data-name="Path 10" d="M990.5,635.212s2.62-70.342-128-18.11-157.935,40.76-157.935,40.76" transform="translate(-234 -483.243)" fill="none" stroke="#f8f0aa" stroke-width="3"/>
    <path id="Path_11" data-name="Path 11" d="M704.565,650.324s-2.306-98.759,112.654-25.426,139,57.226,139,57.226" transform="translate(51.943 -512.568)" fill="none" stroke="#f8f0aa" stroke-width="3"/>
    <path id="Path_12" data-name="Path 12" d="M704.565,650.324s-2.341-98.759,114.372-25.426,141.116,57.226,141.116,57.226" transform="translate(51.943 -502.214)" fill="none" stroke="#f8f0aa" stroke-width="3"/>
    <text id="I_M" data-name="I’M" transform="translate(0 190)" fill="#a0eff5" stroke="#775725" stroke-width="7" font-size="200" font-family="AmericanTypewriter-Bold, American Typewriter" font-weight="700"><tspan x="0" y="0">I’M</tspan></text>
    <text id="_D" data-name="‘D" transform="translate(1024 190)" fill="#a0eff5" stroke="#775725" stroke-width="7" font-size="200" font-family="AmericanTypewriter-Bold, American Typewriter" font-weight="700"><tspan x="0" y="0">‘D</tspan></text>
  </g>
</svg>
